HIERARCHY
ROOT Hips
{
	OFFSET -0.001795 -0.223333 0.028219
	CHANNELS 6 Xposition Yposition Zposition Zrotation Yrotation Xrotation 
	JOINT LeftUpLeg
	{
		OFFSET 0.069520 -0.091406 -0.006815
		CHANNELS 3 Zrotation Yrotation Xrotation
		JOINT LeftLeg
		{
			OFFSET 0.034277 -0.375199 -0.004496
			CHANNELS 3 Zrotation Yrotation Xrotation
			JOINT LeftFoot
			{
				OFFSET -0.013596 -0.397961 -0.043693
				CHANNELS 3 Zrotation Yrotation Xrotation
				JOINT LeftToe
				{
					OFFSET 0.026358 -0.055791 0.119288
					CHANNELS 3 Zrotation Yrotation Xrotation
					End Site
					{
						OFFSET 0.000000 0.000000 0.000000
					}
				}
			}
		}
	}
	JOINT RightUpLeg
	{
		OFFSET -0.067670 -0.090522 -0.004320
		CHANNELS 3 Zrotation Yrotation Xrotation
		JOINT RightLeg
		{
			OFFSET -0.038290 -0.382569 -0.008850
			CHANNELS 3 Zrotation Yrotation Xrotation
			JOINT RightFoot
			{
				OFFSET 0.015774 -0.398415 -0.042312
				CHANNELS 3 Zrotation Yrotation Xrotation
				JOINT RightToe
				{
					OFFSET -0.025372 -0.048144 0.123348
					CHANNELS 3 Zrotation Yrotation Xrotation
					End Site
					{
						OFFSET 0.000000 0.000000 0.000000
					}
				}
			}
		}
	}
	JOINT Spine
	{
		OFFSET -0.002533 0.108963 -0.026696
		CHANNELS 3 Zrotation Yrotation Xrotation
		JOINT Spine1
		{
			OFFSET 0.005487 0.135180 0.001092
			CHANNELS 3 Zrotation Yrotation Xrotation
			JOINT Spine2
			{
				OFFSET 0.001457 0.052922 0.025425
				CHANNELS 3 Zrotation Yrotation Xrotation
				JOINT Neck
				{
					OFFSET -0.002778 0.213870 -0.042857
					CHANNELS 3 Zrotation Yrotation Xrotation
					JOINT Head
					{
						OFFSET 0.005152 0.064970 0.051349
						CHANNELS 3 Zrotation Yrotation Xrotation
						End Site
						{
							OFFSET 0.000000 0.000000 0.000000
						}
					}
				}
				JOINT LeftShoulder
				{
					OFFSET 0.078845 0.121749 -0.034090
					CHANNELS 3 Zrotation Yrotation Xrotation
					JOINT LeftArm
					{
						OFFSET 0.090977 0.030469 -0.008868
						CHANNELS 3 Zrotation Yrotation Xrotation
						JOINT LeftForeArm
						{
							OFFSET 0.259612 -0.012772 -0.027456
							CHANNELS 3 Zrotation Yrotation Xrotation
							JOINT LeftHand
							{
								OFFSET 0.249234 0.008986 -0.001171
								CHANNELS 3 Zrotation Yrotation Xrotation
								End Site
								{
									OFFSET 0.000000 0.000000 0.000000
								}
							}
						}
					}
				}
				JOINT RightShoulder
				{
					OFFSET -0.081759 0.118833 -0.038615
					CHANNELS 3 Zrotation Yrotation Xrotation
					JOINT RightArm
					{
						OFFSET -0.096012 0.032551 -0.009143
						CHANNELS 3 Zrotation Yrotation Xrotation
						JOINT RightForeArm
						{
							OFFSET -0.253742 -0.013329 -0.021401
							CHANNELS 3 Zrotation Yrotation Xrotation
							JOINT RightHand
							{
								OFFSET -0.255298 0.007772 -0.005559
								CHANNELS 3 Zrotation Yrotation Xrotation
								End Site
								{
									OFFSET 0.000000 0.000000 0.000000
								}
							}
						}
					}
				}
			}
		}
	}
}
MOTION
Frames: 17
Frame Time: 0.050000
0.000000 0.960389 0.000000 2.464738 16.879948 8.811605 7.985401 -0.778860 -8.683808 -4.930303 0.309753 3.274793 8.856511 20.016173 16.331924 0.000000 0.000000 0.000000 -9.605770 -0.223943 -17.730584 2.259925 -0.413778 10.303854 7.611275 9.227632 17.801902 0.000000 0.000000 0.000000 5.994841 -4.537447 29.422519 8.308972 -1.534277 -18.297116 5.411579 0.798181 26.498291 6.270807 -2.420005 -14.421244 0.000000 0.000000 0.000000 -14.522470 -15.505370 5.003681 -61.423686 -21.632947 1.295543 -24.113877 -53.081606 14.282291 0.000000 0.000000 0.000000 -1.229573 24.159876 8.621550 47.248540 42.640962 12.096393 -18.368619 16.440250 -1.476873 0.000000 0.000000 0.000000 
-0.000988 0.961509 -0.000859 2.480242 16.717468 9.646893 8.662528 -0.836115 -9.769587 -4.945842 0.316475 2.715598 7.788293 19.004092 18.628646 0.000000 0.000000 0.000000 -10.253888 -0.377902 -19.102381 3.352088 -0.665140 10.278318 8.185278 9.113401 20.102218 0.000000 0.000000 0.000000 7.035635 -4.777001 28.813345 9.474057 -1.826686 -19.018797 5.009892 1.641636 28.673431 7.407162 -3.119752 -14.543328 0.000000 0.000000 0.000000 -15.599671 -14.831435 4.461788 -59.595948 -22.162620 1.302872 -27.497118 -53.840144 16.173201 0.000000 0.000000 0.000000 -3.071500 24.938365 8.336396 47.823779 43.074675 12.779420 -22.050163 14.461816 -1.523745 0.000000 0.000000 0.000000 
-0.001283 0.961180 -0.001929 2.476076 16.075724 9.295082 8.359087 -0.802299 -9.428709 -5.255261 0.350742 3.101160 9.010785 20.384291 18.112366 0.000000 0.000000 0.000000 -9.926258 -0.288482 -19.008753 3.445114 -0.698898 10.990861 7.009656 7.851859 18.323994 0.000000 0.000000 0.000000 7.425577 -4.755409 28.457388 9.422632 -1.892725 -18.353463 5.753691 2.044787 28.430350 7.710246 -3.051491 -15.866579 0.000000 0.000000 0.000000 -15.903784 -14.394959 4.183566 -59.627025 -23.426700 2.023297 -29.747920 -54.467061 17.587789 0.000000 0.000000 0.000000 -3.250199 23.804585 7.880998 45.541475 42.260629 11.556248 -19.996751 15.015310 -1.453598 0.000000 0.000000 0.000000 
-0.001244 0.963326 -0.002996 2.492458 16.426097 8.771465 8.368686 -0.781235 -8.889480 -4.793682 0.305732 3.285632 7.706047 18.738837 17.701803 0.000000 0.000000 0.000000 -10.416935 -0.381327 -18.341074 3.237477 -0.655967 10.928951 8.794351 10.471981 19.155042 0.000000 0.000000 0.000000 7.970044 -5.130242 29.305009 10.116394 -2.188489 -17.620594 6.002645 1.762523 28.287939 7.065427 -2.592046 -16.080122 0.000000 0.000000 0.000000 -15.249791 -14.484466 4.344792 -60.013850 -23.766365 2.181737 -29.517930 -57.306908 18.624239 0.000000 0.000000 0.000000 -5.322842 24.273484 7.374738 45.359231 42.233809 11.676749 -21.769674 14.052580 -1.458147 0.000000 0.000000 0.000000 
-0.001051 0.964468 -0.003962 3.337589 16.979249 8.835658 7.288114 -0.779749 -8.863738 -4.680975 0.287333 3.287872 7.607451 18.666124 17.706217 0.000000 0.000000 0.000000 -11.072571 -0.500077 -17.475414 3.036752 -0.598678 10.222040 8.069405 9.719857 18.392735 0.000000 0.000000 0.000000 8.347491 -5.299959 29.304925 10.428488 -2.239969 -17.923332 6.144930 1.355892 28.171796 6.432371 -2.102894 -16.385536 0.000000 0.000000 0.000000 -15.090227 -14.909403 4.589907 -59.134972 -23.057082 1.764967 -34.117363 -59.367224 22.155954 0.000000 0.000000 0.000000 -5.145663 24.184159 7.403255 43.913659 40.605403 10.374349 -21.425676 14.663414 -1.529792 0.000000 0.000000 0.000000 
-0.001094 0.966229 -0.004649 3.746985 16.969708 8.812442 6.859480 -0.763554 -8.618623 -4.326112 0.254919 3.479693 6.641562 17.389187 17.274666 0.000000 0.000000 0.000000 -11.310952 -0.529799 -17.158676 2.439779 -0.446442 9.859076 8.593562 10.386132 18.851798 0.000000 0.000000 0.000000 8.760156 -5.380833 29.088811 10.258361 -2.183983 -17.976571 6.463069 0.844342 28.554409 6.052046 -1.962624 -16.145047 0.000000 0.000000 0.000000 -14.398555 -15.466187 5.017834 -58.919729 -23.847414 2.065695 -35.443630 -61.201568 23.990826 0.000000 0.000000 0.000000 -6.363169 23.701144 6.864119 44.785054 39.677958 10.234861 -22.243966 15.666141 -1.728169 0.000000 0.000000 0.000000 
-0.001540 0.967193 -0.005199 3.954056 16.341251 8.874220 6.800776 -0.754237 -8.605941 -4.524442 0.280236 3.550440 6.606684 17.368110 17.725517 0.000000 0.000000 0.000000 -11.365845 -0.502693 -17.217041 2.345948 -0.403258 9.588312 8.581649 10.175202 19.101774 0.000000 0.000000 0.000000 8.657752 -5.283387 29.061509 10.445186 -2.243670 -18.103578 6.555112 0.245361 28.820561 5.893901 -1.901269 -16.731782 0.000000 0.000000 0.000000 -13.695874 -15.446717 5.226257 -58.085536 -23.928342 1.991719 -37.331813 -62.548605 26.084658 0.000000 0.000000 0.000000 -5.614451 23.709648 7.076339 44.458217 39.029219 9.609585 -22.179768 16.493641 -1.862990 0.000000 0.000000 0.000000 
-0.002309 0.967845 -0.005800 3.917554 15.746158 8.949375 7.109463 -0.753878 -8.727868 -5.009994 0.333387 3.545281 6.888236 17.763702 18.353578 0.000000 0.000000 0.000000 -11.060882 -0.419191 -17.470261 1.863756 -0.279163 9.492063 8.939910 10.574874 19.351028 0.000000 0.000000 0.000000 8.764602 -5.230893 28.899182 10.624180 -2.361402 -17.677643 6.357156 0.090642 28.504931 4.960215 -1.360206 -16.422895 0.000000 0.000000 0.000000 -13.395039 -15.942670 5.569666 -56.415486 -24.478792 2.177252 -31.961777 -63.318727 22.952209 0.000000 0.000000 0.000000 -4.075053 23.780021 7.547312 43.965060 38.834882 9.184589 -22.203286 16.211681 -1.823263 0.000000 0.000000 0.000000 
-0.003130 0.967735 -0.006510 3.686824 14.752815 8.586995 7.496193 -0.723892 -8.487567 -5.168343 0.364072 3.822820 7.097329 17.993671 18.814653 0.000000 0.000000 0.000000 -10.599252 -0.294878 -17.782850 1.652363 -0.214810 9.780818 9.295766 10.685482 20.020125 0.000000 0.000000 0.000000 8.311633 -5.086548 29.401826 10.976600 -2.464320 -17.934234 6.480291 -0.200815 28.747631 4.118683 -0.868162 -16.621837 0.000000 0.000000 0.000000 -12.853363 -16.354473 5.927877 -55.028962 -26.442699 2.983447 -21.335514 -62.195891 15.923875 0.000000 0.000000 0.000000 -2.714481 24.376575 8.091532 43.758050 39.070470 9.004434 -22.190100 15.840624 -1.788062 0.000000 0.000000 0.000000 
-0.003892 0.968005 -0.007330 3.754013 13.996051 8.586427 7.445255 -0.719339 -8.686569 -5.277479 0.386757 3.877396 7.660352 18.773319 20.055933 0.000000 0.000000 0.000000 -10.338610 -0.222300 -18.285826 1.267270 -0.113978 9.900312 9.548700 10.549117 20.906014 0.000000 0.000000 0.000000 8.185256 -4.927018 29.189176 11.158630 -2.558505 -17.711823 6.261325 -0.715115 28.591965 2.778355 -0.062627 -16.656554 0.000000 0.000000 0.000000 -12.213904 -17.029660 6.403234 -52.833502 -29.210351 4.050340 -9.880089 -59.118973 8.460342 0.000000 0.000000 0.000000 -1.217569 24.858630 8.648199 44.238809 39.479707 9.110777 -21.400824 16.075152 -1.766773 0.000000 0.000000 0.000000 
-0.004532 0.967960 -0.008153 3.503947 13.594605 8.313753 7.849174 -0.698969 -8.444598 -5.217069 0.388575 3.860393 7.380071 18.418361 20.301541 0.000000 0.000000 0.000000 -10.120326 -0.168972 -18.441726 1.355230 -0.125584 9.992756 9.995023 10.768068 21.760697 0.000000 0.000000 0.000000 7.817647 -4.830054 29.522316 11.551399 -2.685596 -17.771341 6.346649 -1.019941 28.557637 1.963297 0.478029 -17.186835 0.000000 0.000000 0.000000 -11.477373 -17.995476 6.908297 -51.285073 -32.945954 5.535858 1.202988 -53.599505 1.969477 0.000000 0.000000 0.000000 -0.253127 25.822362 9.223648 45.540643 40.071178 9.670952 -20.588157 16.736131 -1.797510 0.000000 0.000000 0.000000 
-0.005168 0.967653 -0.009005 3.135238 12.932696 7.616442 8.157060 -0.650755 -7.690769 -5.173337 0.397271 3.305152 8.043701 19.261144 21.554149 0.000000 0.000000 0.000000 -9.606032 -0.034817 -17.957476 1.249454 -0.085675 9.639514 10.383611 10.941791 22.427848 0.000000 0.000000 0.000000 7.455690 -4.669788 29.741088 11.750355 -2.837478 -17.205711 5.937293 -1.318466 28.241701 0.726204 1.164425 -16.405393 0.000000 0.000000 0.000000 -11.265529 -18.612219 7.292746 -49.969157 -36.025201 6.728323 7.342434 -47.980900 -0.921253 0.000000 0.000000 0.000000 0.689181 26.855995 9.802069 47.077527 41.359762 10.659191 -20.008178 18.167808 -1.951843 0.000000 0.000000 0.000000 
-0.005677 0.966943 -0.009885 2.567286 12.204549 7.284297 8.810156 -0.635939 -7.774869 -5.209556 0.413164 3.539770 8.609174 19.941533 22.661482 0.000000 0.000000 0.000000 -9.020749 0.100157 -17.992326 1.557690 -0.137151 9.437331 10.417192 10.586796 23.013362 0.000000 0.000000 0.000000 6.946529 -4.482349 29.991154 11.424842 -2.741237 -17.295180 5.872226 -1.524985 28.293631 -0.026642 1.679800 -17.353390 0.000000 0.000000 0.000000 -10.904854 -18.849178 7.460847 -49.387364 -38.048694 7.544845 11.049463 -43.399779 -2.247680 0.000000 0.000000 0.000000 1.307094 27.415647 10.132988 50.022824 42.039236 11.924536 -19.707559 19.973966 -2.144445 0.000000 0.000000 0.000000 
-0.006039 0.965907 -0.010829 1.945620 11.143878 6.951003 9.206847 -0.598690 -7.357584 -5.299230 0.439890 3.322044 10.009185 21.463200 23.117072 0.000000 0.000000 0.000000 -8.149722 0.296025 -18.020774 1.456556 -0.094693 9.240692 10.523614 10.500284 23.189986 0.000000 0.000000 0.000000 6.110375 -4.128347 30.087901 11.532965 -2.845280 -16.924597 5.319277 -1.404228 28.100235 -0.892533 2.240319 -17.720621 0.000000 0.000000 0.000000 -11.163514 -18.507786 7.393273 -48.370045 -38.339352 7.470649 12.868104 -41.040923 -2.769582 0.000000 0.000000 0.000000 2.329389 27.936392 10.580547 51.724828 42.853971 12.876115 -18.911018 22.648087 -2.364361 0.000000 0.000000 0.000000 
-0.006018 0.964788 -0.011592 1.493004 10.847354 6.626201 9.507588 -0.589674 -7.530885 -5.144878 0.429176 3.877046 10.649254 22.173733 23.459873 0.000000 0.000000 0.000000 -7.689024 0.382585 -17.928114 1.509129 -0.100021 9.256489 10.648557 10.618702 23.240369 0.000000 0.000000 0.000000 5.581473 -3.973037 30.351344 10.693389 -2.574587 -17.005853 5.083624 -2.008237 27.961654 -1.705342 2.668302 -17.511677 0.000000 0.000000 0.000000 -11.585914 -18.728866 7.659310 -47.525510 -38.166695 7.244708 13.193983 -40.888000 -2.830144 0.000000 0.000000 0.000000 2.948240 28.021126 10.717932 53.651059 43.034203 13.556587 -17.694031 25.280485 -2.449292 0.000000 0.000000 0.000000 
-0.005706 0.964089 -0.011891 0.826344 10.171606 6.284102 9.878209 -0.565123 -7.430601 -4.872973 0.410219 3.993439 11.732739 23.329226 24.374452 0.000000 0.000000 0.000000 -6.885772 0.539780 -17.793716 1.519754 -0.090049 8.897099 10.792158 10.377049 23.938295 0.000000 0.000000 0.000000 4.311199 -3.556337 30.659961 10.611565 -2.523960 -17.344843 4.494364 -2.043921 28.097316 -2.104239 2.912522 -17.999727 0.000000 0.000000 0.000000 -12.853709 -18.272405 7.629240 -47.587722 -37.421709 6.951647 12.766528 -41.546009 -2.671550 0.000000 0.000000 0.000000 3.961427 28.075775 10.977855 54.425345 42.789758 13.595261 -16.601606 28.514227 -2.547004 0.000000 0.000000 0.000000 
-0.004980 0.963475 -0.011661 0.047313 9.979064 5.990704 10.439415 -0.555279 -7.555837 -4.935845 0.419884 4.670441 12.676737 24.354663 24.053167 0.000000 0.000000 0.000000 -5.870789 0.697875 -17.378646 1.242855 -0.033744 8.140549 10.868166 10.096145 24.681857 0.000000 0.000000 0.000000 3.500407 -3.236004 30.272234 10.177276 -2.421805 -17.123918 3.950439 -2.462588 27.797737 -2.602028 3.180323 -18.212815 0.000000 0.000000 0.000000 -14.591744 -17.745223 7.635228 -47.852243 -35.659367 6.289653 9.911799 -43.207173 -1.613528 0.000000 0.000000 0.000000 4.931720 27.655399 11.024057 53.835622 42.058765 12.871887 -14.666498 32.713716 -2.449995 0.000000 0.000000 0.000000 
